<?xml version="1.0" encoding="UTF-8"?>
<svg width="121px" height="20px" viewBox="0 0 121 20" version="1.1" xmlns="http://www.w3.org/2000/svg" xmlns:xlink="http://www.w3.org/1999/xlink">
    <title>Untitled 19</title>
    <defs>
        <filter id="filter-1">
            <feColorMatrix in="SourceGraphic" type="matrix" values="0 0 0 0 0.000000 0 0 0 0 0.000000 0 0 0 0 0.000000 0 0 0 1.000000 0"></feColorMatrix>
        </filter>
        <polygon id="path-2" points="0.80389 0.2901 15.20584 0.2901 15.20584 14.6921 0.80389 14.6921"></polygon>
    </defs>
    <g id="Page-1" stroke="none" stroke-width="1" fill="none" fill-rule="evenodd">
        <g filter="url(#filter-1)" id="wdlogo">
            <g>
                <g id="Clipped" transform="translate(0.000000, 3.000000)">
                    <mask id="mask-3" fill="white">
                        <use xlink:href="#path-2"></use>
                    </mask>
                    <g id="Path" transform="translate(8.004865, 7.491100) scale(-1, 1) rotate(-180.000000) translate(-8.004865, -7.491100) "></g>
                    <path d="M13.13556,6.501 L15.20584,6.501 L15.20584,8.4812 L13.13556,8.4812 L13.13556,6.501 Z M11.06528,10.5515 L13.13556,10.5515 L13.13556,8.4812 L11.06528,8.4812 L11.06528,10.5515 Z M8.995,12.6218 L11.06528,12.6218 L11.06528,10.5515 L8.995,10.5515 L8.995,12.6218 Z M7.01473,14.6921 L9.08501,14.6921 L9.08501,12.6218 L7.01473,12.6218 L7.01473,14.6921 Z M11.06528,6.501 L13.13556,6.501 L13.13556,4.4307 L11.06528,4.4307 L11.06528,6.501 Z M8.995,4.4307 L11.06528,4.4307 L11.06528,2.3604 L8.995,2.3604 L8.995,4.4307 Z M7.01473,2.3604 L9.08501,2.3604 L9.08501,0.2901 L7.01473,0.2901 L7.01473,2.3604 Z M7.01473,8.4812 L9.08501,8.4812 L9.08501,6.411 L7.01473,6.411 L7.01473,8.4812 Z M4.94445,10.5515 L7.01473,10.5515 L7.01473,8.4812 L4.94445,8.4812 L4.94445,10.5515 Z M2.87417,12.6218 L4.94445,12.6218 L4.94445,10.5515 L2.87417,10.5515 L2.87417,12.6218 Z M0.80389,14.6921 L2.87417,14.6921 L2.87417,12.6218 L0.80389,12.6218 L0.80389,14.6921 Z M4.94445,6.501 L7.01473,6.501 L7.01473,4.4307 L4.94445,4.4307 L4.94445,6.501 Z M2.87417,4.4307 L4.94445,4.4307 L4.94445,2.3604 L2.87417,2.3604 L2.87417,4.4307 Z M0.80389,2.3604 L2.87417,2.3604 L2.87417,0.2901 L0.80389,0.2901 L0.80389,2.3604 Z" id="Shape" fill="#000000" fill-rule="nonzero" mask="url(#mask-3)" transform="translate(8.004865, 7.491100) scale(-1, 1) rotate(-180.000000) translate(-8.004865, -7.491100) "></path>
                </g>
                <g id="Clipped" transform="translate(18.000000, 0.000000)" fill="#696969" fill-rule="nonzero">
                    <g id="Group">
                        <g id="font_3_3-link" transform="translate(8.587095, 10.494850) scale(-1, 1) rotate(-180.000000) translate(-8.587095, -10.494850) translate(0.587095, 2.494850)">
                            <polygon id="Path" points="7.95482997 9.81081096 6.18339117 3.401945 3.80706996 3.401945 1.401945 12.4031606 3.85027565 12.4031606 5.06003903 6.03750122 6.67305745 12.4031606 9.29421172 12.4031606 10.9360337 6.03750122 12.1457971 12.4031606 14.4933139 12.4031606 12.0881892 3.401945 9.69746618 3.401945"></polygon>
                        </g>
                        <g id="font_3_6" transform="translate(21.209372, 8.093557) scale(-1, 1) rotate(-180.000000) translate(-21.209372, -8.093557) translate(14.008400, 0.892585)">
                            <path d="M2.17469384,3.05321248 L2.17469384,3.02440859 C2.21309907,2.57314755 2.38112153,2.22270027 2.67876177,1.97306661 C2.98600336,1.73303414 3.40846051,1.61301798 3.94613336,1.61301784 C4.65662927,1.61301798 5.38632815,1.82904702 6.13522915,2.26110537 L6.35125774,0.547273968 C5.64076213,0.182424656 4.77184512,1.34128569e-08 3.74450613,1.34128569e-08 C2.5923501,1.34128569e-08 1.68022696,0.307241517 1.00813615,0.92172448 C0.336045393,1.53620766 0,2.39552361 0,3.49967292 C0,4.58461969 0.336045393,5.45833788 1.00813615,6.12082663 C1.68022696,6.78331696 2.55394501,7.11456169 3.62929014,7.11456126 C4.5606164,7.11456169 5.28071336,6.86012685 5.78958189,6.35125775 C6.30805277,5.84238936 6.56728692,5.16069734 6.5672875,4.30618199 C6.56728692,3.83571869 6.51928063,3.44206514 6.42326747,3.12522221 L2.17469384,3.05321248 M2.18909578,4.1621621 L4.50780922,4.17656448 L4.50780922,4.30618199 C4.50780922,5.16069734 4.16696299,5.58795466 3.48527098,5.58795466 C3.12042175,5.58795466 2.82278165,5.44873595 2.5923501,5.17029883 C2.36191898,4.90146219 2.22750102,4.56541656 2.18909578,4.1621621 Z" id="Shape"></path>
                        </g>
                        <g id="font_3_4" transform="translate(29.029622, 8.107963) scale(-1, 1) rotate(-180.000000) translate(-29.029622, -8.107963) translate(21.828650, 0.906990)">
                            <path d="M6.95614016,3.64369252 C6.95614016,2.56834695 6.62969573,1.69462891 5.97680761,1.0225381 C5.32391919,0.350447338 4.53181207,0.0144019479 3.60048625,0.0144019479 C3.09161757,0.0144019479 2.58754936,0.105614273 2.08828203,0.288038929 L0,0 L0,9.73571482 L2.21789953,10.0093518 L2.21789953,6.22164096 C2.80357867,6.82652193 3.4324638,7.12896277 4.10455433,7.12896277 C4.93986757,7.12896277 5.62155915,6.81212042 6.14963095,6.17843484 C6.68730409,5.54474926 6.95614016,4.69983539 6.95614016,3.64369252 M4.7382399,3.52847652 C4.7382399,4.10455433 4.61822389,4.55101462 4.37819171,4.86785741 C4.1381591,5.19430154 3.79251257,5.35752469 3.34125124,5.35752426 C2.92839558,5.35752469 2.55394501,5.20390347 2.21789953,4.89666188 L2.21789953,1.94426258 C2.48673588,1.76183803 2.82758196,1.67062572 3.24043762,1.67062572 C3.7109015,1.67062572 4.07575087,1.83864836 4.33498544,2.17469384 C4.60382166,2.51073917 4.7382399,2.96199993 4.7382399,3.52847652 Z" id="Shape"></path>
                        </g>
                        <g id="font_3_2" transform="translate(40.623183, 7.891932) scale(-1, 1) rotate(-180.000000) translate(-40.623183, -7.891932) translate(33.422210, 0.690960)">
                            <path d="M8.35312911,4.56541656 C8.35312911,3.16362744 7.90186764,2.04987708 6.99934527,1.22416533 C6.10642511,0.408055132 4.8486553,4.4408921e-16 3.22603568,4.4408921e-16 L0,4.4408921e-16 L0,9.00121563 L3.38445736,9.00121563 C4.94946891,9.00121563 6.16883378,8.59796117 7.04255154,7.79145225 C7.91626958,6.99454467 8.35312911,5.9191994 8.35312911,4.56541656 M6.04881733,4.47900533 C6.0488169,5.40072938 5.81358561,6.07762122 5.34312203,6.50967957 C4.88225979,6.95133927 4.18136523,7.17216919 3.24043806,7.17216919 L2.2899094,7.17216919 L2.2899094,1.82904701 L3.35565333,1.82904701 C4.21016912,1.82904701 4.87265873,2.04987708 5.34312203,2.49153663 C5.81358561,2.93319647 6.0488169,3.59568594 6.04881733,4.47900533 Z" id="Shape"></path>
                        </g>
                        <g id="font_3_7" transform="translate(50.085262, 7.891932) scale(-1, 1) rotate(-180.000000) translate(-50.085262, -7.891932) translate(42.884290, 0.690960)">
                            <path d="M2.62115413,8.82839315 C2.62115399,8.45394171 2.50593886,8.1611025 2.2755076,7.94987465 C2.04507619,7.74824742 1.72343279,7.6474328 1.310577,7.6474328 C0.897721277,7.6474328 0.576077858,7.74824742 0.345646738,7.94987465 C0.115215574,8.1611025 0,8.45394171 0,8.82839315 C0,9.2124455 0.115215574,9.5052837 0.345646738,9.70691093 C0.576077858,9.9181395 0.897721277,10.0237546 1.310577,10.0237546 C1.72343279,10.0237546 2.04507619,9.9181395 2.2755076,9.70691093 C2.50593886,9.5052837 2.62115399,9.2124455 2.62115413,8.82839315 M2.41952705,0 L0.201627259,0 L0.201627259,6.5816893 L2.41952705,6.85532582 L2.41952705,0 Z" id="Shape"></path>
                        </g>
                        <g id="font_3_a-link" transform="translate(49.486095, 11.494850) scale(-1, 1) rotate(-180.000000) translate(-49.486095, -11.494850) translate(41.486095, 3.494850)">
                            <path d="M7.61984453,8.30487267 L7.61984453,4.401945 L5.401945,4.401945 L5.401945,10.9836343 L7.61984453,11.2572708 L7.61984453,10.277939 C8.0134975,10.9692319 8.5511705,11.314879 9.23286237,11.314879 C9.61691443,11.314879 9.98656469,11.2236665 10.3418126,11.0412422 L9.89535184,9.08257756 C9.62651549,9.21699537 9.34807836,9.28420479 9.06003903,9.28420479 C8.47435989,9.28420479 7.9942951,8.95776065 7.61984453,8.30487267 Z" id="Path"></path>
                        </g>
                        <g id="font_3_6" transform="translate(59.360140, 8.093557) scale(-1, 1) rotate(-180.000000) translate(-59.360140, -8.093557) translate(52.159168, 0.892585)">
                            <path d="M2.17469384,3.05321248 L2.17469384,3.02440859 C2.21309907,2.57314755 2.38112153,2.22270027 2.67876177,1.97306661 C2.98600336,1.73303414 3.40846051,1.61301798 3.94613336,1.61301784 C4.65662927,1.61301798 5.38632815,1.82904702 6.13522915,2.26110537 L6.35125774,0.547273968 C5.64076213,0.182424656 4.77184512,1.34128569e-08 3.74450613,1.34128569e-08 C2.5923501,1.34128569e-08 1.68022696,0.307241517 1.00813615,0.92172448 C0.336045393,1.53620766 0,2.39552361 0,3.49967292 C0,4.58461969 0.336045393,5.45833788 1.00813615,6.12082663 C1.68022696,6.78331696 2.55394501,7.11456169 3.62929014,7.11456126 C4.5606164,7.11456169 5.28071336,6.86012685 5.78958189,6.35125775 C6.30805277,5.84238936 6.56728692,5.16069734 6.5672875,4.30618199 C6.56728692,3.83571869 6.51928063,3.44206514 6.42326747,3.12522221 L2.17469384,3.05321248 M2.18909578,4.1621621 L4.50780922,4.17656448 L4.50780922,4.30618199 C4.50780922,5.16069734 4.16696299,5.58795466 3.48527098,5.58795466 C3.12042175,5.58795466 2.82278165,5.44873595 2.5923501,5.17029883 C2.36191898,4.90146219 2.22750102,4.56541656 2.18909578,4.1621621 Z" id="Shape"></path>
                        </g>
                        <g id="font_3_5-link" transform="translate(62.731835, 11.710880) scale(-1, 1) rotate(-180.000000) translate(-62.731835, -11.710880) translate(55.231835, 3.710880)">
                            <path d="M10.4795662,4.94921897 C9.88428588,4.58436966 9.06817576,4.401945 8.03123572,4.401945 C6.90788386,4.401945 6.01976356,4.70438585 5.36687532,5.30926754 C4.72358845,5.92375057 4.401945,6.79266801 4.401945,7.91601987 C4.401945,9.02016918 4.73318974,9.89868782 5.39567921,10.5515764 C6.06776999,11.2044639 6.9654915,11.5309078 8.08884292,11.5309078 C9.05857427,11.5309078 9.86988393,11.3436829 10.5227723,10.9692325 L10.090714,9.29860688 C9.48583187,9.64425384 8.89535184,9.81707718 8.31927404,9.81707718 C7.80080431,9.81707718 7.3927491,9.64905459 7.09510872,9.31300868 C6.80706996,8.9769632 6.66305037,8.53530322 6.66305037,7.98802959 C6.66305037,7.40235016 6.8166713,6.94628881 7.12391275,6.61984482 C7.43115434,6.29340054 7.84881074,6.13017852 8.37688225,6.13017852 C9.01056783,6.13017852 9.60104772,6.29820128 10.1483215,6.63424648 L10.4795662,4.94921897 Z" id="Path"></path>
                        </g>
                        <g id="font_3_c-link" transform="translate(68.871145, 11.210880) scale(-1, 1) rotate(-180.000000) translate(-68.871145, -11.210880) translate(60.871145, 3.710880)">
                            <path d="M10.3994205,3.64677807 C9.86174821,3.48355603 9.31927476,3.401945 8.77200027,3.401945 C7.95589001,3.401945 7.34140697,3.57476835 6.9285513,3.92041508 C6.51569551,4.275663 6.30926753,4.83733904 6.30926753,5.60544273 L6.30926753,5.83587399 L6.41008115,8.3850184 L5.401945,8.55784203 L5.44515084,9.9692325 L6.45328698,10.3004772 L6.48209087,11.8270837 L8.62798068,11.8270837 L8.61357873,10.2284677 L10.2842048,10.2284677 L10.2409991,8.48583231 L8.45515748,8.48583231 L8.38314761,6.08070677 C8.35434372,5.49502777 8.64718351,5.20218813 9.26166698,5.20218813 C9.50169916,5.20218813 9.79453895,5.25979605 10.1401855,5.37501161 L10.3994205,3.64677807 Z" id="Path"></path>
                        </g>
                        <g id="font_3_7" transform="translate(79.378843, 7.891932) scale(-1, 1) rotate(-180.000000) translate(-79.378843, -7.891932) translate(72.177870, 0.690960)">
                            <path d="M2.62115413,8.82839315 C2.62115399,8.45394171 2.50593886,8.1611025 2.2755076,7.94987465 C2.04507619,7.74824742 1.72343279,7.6474328 1.310577,7.6474328 C0.897721277,7.6474328 0.576077858,7.74824742 0.345646738,7.94987465 C0.115215574,8.1611025 0,8.45394171 0,8.82839315 C0,9.2124455 0.115215574,9.5052837 0.345646738,9.70691093 C0.576077858,9.9181395 0.897721277,10.0237546 1.310577,10.0237546 C1.72343279,10.0237546 2.04507619,9.9181395 2.2755076,9.70691093 C2.50593886,9.5052837 2.62115399,9.2124455 2.62115413,8.82839315 M2.41952705,0 L0.201627259,0 L0.201627259,6.5816893 L2.41952705,6.85532582 L2.41952705,0 Z" id="Shape"></path>
                        </g>
                        <g id="font_3_9" transform="translate(83.022523, 8.107963) scale(-1, 1) rotate(-180.000000) translate(-83.022523, -8.107963) translate(75.821550, 0.906990)">
                            <path d="M3.64369252,7.12896277 C4.68063256,7.12896277 5.53034746,6.81212042 6.19283635,6.17843484 C6.85532654,5.54474926 7.18657128,4.68063256 7.18657128,3.58608459 C7.18657128,2.49153692 6.84092431,1.61781856 6.14963095,0.964930315 C5.45833788,0.321643448 4.59422046,0 3.55728056,0 C2.52034052,0 1.66582516,0.312042146 0.993734335,0.936126425 C0.331244764,1.56981212 0,2.43872945 0,3.54287847 C0,4.64702778 0.345646723,5.52074611 1.03694016,6.16403304 C1.72823352,6.80731924 2.5971507,7.12896277 3.64369252,7.12896277 M4.9830734,3.5716825 C4.98307383,4.14776059 4.8582565,4.60382209 4.60862283,4.93986714 C4.36859066,5.27591276 4.02774443,5.44393564 3.58608459,5.44393564 C3.1444249,5.44393564 2.80357867,5.27591276 2.56354621,4.93986714 C2.32351389,4.60382209 2.20349773,4.14295985 2.20349773,3.55728056 C2.20349773,2.9812029 2.32351389,2.52514112 2.56354621,2.18909578 C2.80357867,1.86265151 3.1492255,1.69942965 3.60048625,1.69942965 C4.05174772,1.69942965 4.39259395,1.86265151 4.62302435,2.18909578 C4.86305681,2.52514112 4.98307383,2.98600336 4.9830734,3.5716825 Z" id="Shape"></path>
                        </g>
                        <g id="font_3_8-link" transform="translate(87.330355, 11.494850) scale(-1, 1) rotate(-180.000000) translate(-87.330355, -11.494850) translate(79.830355, 3.494850)">
                            <path d="M10.9980358,4.401945 L8.78013671,4.401945 L8.78013671,8.36247987 C8.78013671,8.74653222 8.69852564,9.02016918 8.53530322,9.18339117 C8.38168256,9.34661288 8.1464507,9.4282238 7.82960791,9.4282238 C7.39754956,9.4282238 6.9942951,9.2602015 6.61984453,8.92415573 L6.61984453,4.401945 L4.401945,4.401945 L4.401945,10.9836343 L6.61984453,11.2572708 L6.61984453,10.162723 C7.29193534,10.9308271 8.04083677,11.314879 8.86654795,11.314879 C9.52903814,11.314879 10.0475074,11.1084511 10.421958,10.695595 C10.8060098,10.2923405 10.9980364,9.73066465 10.9980358,9.01056783 L10.9980358,4.401945 Z" id="Path"></path>
                        </g>
                        <g id="font_3_b-link" transform="translate(95.020985, 11.710880) scale(-1, 1) rotate(-180.000000) translate(-95.020985, -11.710880) translate(87.520985, 3.710880)">
                            <path d="M7.23912831,4.401945 C6.75906338,4.401945 6.25019456,4.45475213 5.71252212,4.5603664 C5.17484943,4.66598065 4.73799042,4.81000013 4.401945,4.99242475 L4.83400338,6.59104078 C5.65011361,6.16858378 6.46622374,5.95735506 7.282334,5.95735506 C7.88721569,5.95735506 8.18965654,6.13977986 8.18965654,6.50462926 C8.18965654,6.67745231 8.10324487,6.8118707 7.93042181,6.90788357 C7.75759862,7.00389673 7.46475883,7.0999096 7.05190288,7.19592233 C6.21659007,7.35914461 5.58290449,7.60877828 5.15084623,7.94482347 C4.71878782,8.28086895 4.50275863,8.76093417 4.50275863,9.3850184 C4.50275863,10.018704 4.76679431,10.532373 5.29486565,10.9260261 C5.82293695,11.3292813 6.5430342,11.5309078 7.45515748,11.5309078 C7.89681718,11.5309078 8.37688225,11.4733006 8.89535256,11.3580852 C9.41382272,11.2524704 9.84108004,11.1180525 10.1771254,10.9548307 L9.73066523,9.3706166 C8.90495347,9.77387106 8.13685008,9.97549772 7.42635359,9.97549815 C6.87907954,9.97549772 6.60544259,9.80747526 6.60544259,9.47142964 C6.60544259,9.2986063 6.696655,9.16418819 6.87907954,9.06817518 C7.06150437,8.98176351 7.35434373,8.89535184 7.75759819,8.80894017 C8.61211368,8.62651549 9.2457997,8.37208151 9.65865565,8.04563752 C10.0715112,7.71919324 10.277939,7.23912831 10.277939,6.60544273 C10.277939,5.97175712 10.0091029,5.44368577 9.47143022,5.02122864 C8.93375794,4.60837289 8.18965726,4.401945 7.23912831,4.401945 Z" id="Path"></path>
                        </g>
                    </g>
                </g>
            </g>
        </g>
    </g>
</svg>