<?xml version="1.0" encoding="UTF-8"?><svg xmlns="http://www.w3.org/2000/svg" width="400" height="73.39" viewBox="0 0 400 73.39"><g id="a"/><g id="b"><g id="c"><g><path d="M135.83,53.82v18.81h-15.68v-18.63l-15.86-38.88h16.03l7.52,24.28,6.99-24.28h15.94l-14.96,38.7Z" style="fill:#fff;"/><path d="M190.12,27.93v44.7h-15.23v-4.84c-1.07,3.05-3.67,4.84-7.88,4.84h-1.61c-8.51,0-11.91-4.39-11.91-11.11v-22.48c0-6.72,3.4-11.11,11.91-11.11h1.61c4.66,0,7.35,2.15,8.15,5.73v-5.73h14.96Zm-17.65,33.5c1.61,0,2.42-.81,2.42-2.69v-16.93c0-1.88-.81-2.69-2.42-2.69h-1.52c-1.52,0-2.24,.63-2.24,1.97v18.36c0,1.34,.72,1.97,2.24,1.97h1.52Z" style="fill:#fff;"/><path d="M215.83,15.12l-2.69,36.64h-12.27l-2.69-36.64h17.65Zm-16.57,42.82h15.41v14.69h-15.41v-14.69Z" style="fill:#fff;"/><path d="M228.73,28.91l5.73,36.91,5.82-36.91h8.06l-8.06,43.71h-11.56l-8.06-43.71h8.06Z" style="fill:#fff;"/><path d="M268.95,28.91h8.06v43.71h-8.06v-3.49c-.78,2.33-2.63,3.49-5.55,3.49h-3.22c-5.37,0-8.06-2.63-8.06-7.88v-27.86c0-5.31,2.69-7.97,8.06-7.97h3.22c2.93,0,4.78,1.16,5.55,3.49v-3.49Zm-6.09,37.18h3.14c1.07,0,1.84-.24,2.28-.72,.45-.48,.67-1.28,.67-2.42v-24.37c0-1.13-.22-1.94-.67-2.42-.45-.48-1.21-.72-2.28-.72h-3.14c-1.07,0-1.79,.17-2.15,.49-.36,.33-.54,1.03-.54,2.1v25.44c0,1.08,.18,1.78,.54,2.11,.36,.33,1.07,.49,2.15,.49Z" style="fill:#fff;"/><path d="M311.41,34.11h-8.24v-8.6c0-1.07-.17-1.78-.49-2.11-.33-.33-1.03-.49-2.11-.49h-4.57c-1.07,0-1.79,.17-2.15,.49-.36,.33-.54,1.03-.54,2.11V63.76c0,1.07,.18,1.78,.54,2.11,.36,.33,1.08,.49,2.15,.49h4.57c1.08,0,1.78-.16,2.11-.49,.33-.33,.49-1.03,.49-2.11v-8.51h8.24v9.5c0,5.32-2.81,7.97-8.42,7.97h-9.5c-5.55,0-8.33-2.66-8.33-7.97V24.43c0-5.25,2.78-7.88,8.33-7.88h9.5c5.61,0,8.42,2.63,8.42,7.88v9.67Z" style="fill:#fff;"/><path d="M326.46,28.91h9.58c5.55,0,8.33,2.66,8.33,7.97v27.86c0,5.26-2.78,7.88-8.33,7.88h-9.58c-5.5,0-8.24-2.63-8.24-7.88v-27.86c0-5.31,2.75-7.97,8.24-7.97Zm9.94,34.67v-25.62c0-1.07-.18-1.79-.54-2.15-.36-.36-1.07-.54-2.15-.54h-4.93c-1.07,0-1.78,.18-2.11,.54-.33,.36-.49,1.08-.49,2.15v25.62c0,1.08,.16,1.79,.49,2.15,.33,.36,1.03,.54,2.11,.54h4.93c1.07,0,1.79-.18,2.15-.54s.54-1.07,.54-2.15Z" style="fill:#fff;"/><path d="M365.42,28.91h3.14c5.43,0,8.15,2.66,8.15,7.97v35.74h-8.06V38.05c0-1.07-.18-1.78-.54-2.1-.36-.33-1.07-.49-2.15-.49h-3.14c-1.07,0-1.84,.24-2.28,.72-.45,.48-.67,1.29-.67,2.42v34.04h-8.06V28.91h8.06v3.49c.78-2.33,2.63-3.49,5.55-3.49Z" style="fill:#fff;"/><path d="M400,19.51h-3.76c-1.07,0-1.79,.17-2.15,.49-.36,.33-.54,1.03-.54,2.11v6.81h6.45v6.54h-6.45v37.18h-8.06V35.45h-4.39v-6.54h4.39v-8.33c0-5.25,2.78-7.88,8.33-7.88h6.18v6.81Z" style="fill:#fff;"/></g><path d="M81.12,24.2c0-.91-.49-1.34-1.52-1.34h-1.58v-6.98h4.8c6.5,0,8.93,3.58,8.93,8.14v12.15c0,3.46,1.09,4.98,4.07,4.98h.43v6.98h-.43c-2.98,0-4.07,1.52-4.07,4.86v12.27c0,4.55-2.43,8.14-8.93,8.14h-4.8v-6.98h1.58c1.03,0,1.52-.43,1.52-1.34v-13.54c0-4.31,1.94-6.74,4.74-6.92-2.55-.61-4.74-2.61-4.74-7.59v-12.81ZM30.95,10.81V6.74c0-4.86-1.88-6.74-6.07-6.74h-5.16V9.41h2.73c1.4,0,1.94,.3,1.94,1.7s-1.72,2.7-3.08,4.77h7.57c1.07-1.45,2.06-3.06,2.06-5.07Zm19.3,0V6.74c0-4.86-1.88-6.74-6.07-6.74h-5.16V9.41h2.73c1.4,0,1.94,.3,1.94,1.7s-1.72,2.7-3.08,4.77h7.57c1.07-1.45,2.06-3.06,2.06-5.07Zm-2.06,5.07c-1.25,1.7-2.62,3.16-2.62,4.77,0,1.4,.55,1.7,1.94,1.7h2.73v9.41h-5.16c-4.19,0-6.07-1.88-6.07-6.74v-4.07c0-2.1,.72-3.73,1.6-5.07h-11.72c-1.25,1.7-2.62,3.16-2.62,4.77,0,1.4,.55,1.7,1.94,1.7h2.73v9.41h-5.16c-4.19,0-6.07-1.88-6.07-6.74v-4.07c0-2.1,.72-3.73,1.6-5.07H0V54.86c0,10.24,8.3,18.53,18.53,18.53H51.43c10.24,0,18.53-8.3,18.53-18.53V15.88h-21.77Z" style="fill:#FF9900;"/></g></g></svg>